<?xml version="1.0" encoding="UTF-8"?>
<svg xmlns="http://www.w3.org/2000/svg" version="1.1" width="100" height="100" viewBox="0 0 100 100"><rect x="0" y="0" width="100" height="100" fill="#ffffff"/><g transform="scale(2.703)"><g transform="translate(0,0)"><path fill-rule="evenodd" d="M10 0L10 2L11 2L11 0ZM12 0L12 1L13 1L13 2L12 2L12 4L14 4L14 5L11 5L11 6L10 6L10 4L11 4L11 3L8 3L8 4L9 4L9 5L8 5L8 7L9 7L9 8L6 8L6 9L7 9L7 10L6 10L6 11L5 11L5 13L4 13L4 15L3 15L3 16L4 16L4 17L3 17L3 18L1 18L1 16L0 16L0 19L1 19L1 20L0 20L0 21L1 21L1 22L0 22L0 23L1 23L1 25L0 25L0 29L1 29L1 25L2 25L2 20L3 20L3 25L5 25L5 24L6 24L6 25L8 25L8 26L9 26L9 24L10 24L10 27L11 27L11 25L12 25L12 26L13 26L13 27L12 27L12 29L13 29L13 28L14 28L14 29L15 29L15 28L17 28L17 29L18 29L18 31L19 31L19 30L20 30L20 29L21 29L21 31L20 31L20 32L22 32L22 31L23 31L23 33L18 33L18 32L15 32L15 31L16 31L16 30L15 30L15 31L14 31L14 32L15 32L15 33L12 33L12 31L13 31L13 30L11 30L11 31L10 31L10 32L8 32L8 37L9 37L9 33L10 33L10 34L11 34L11 33L12 33L12 34L13 34L13 35L12 35L12 37L13 37L13 36L14 36L14 37L19 37L19 36L20 36L20 35L18 35L18 34L26 34L26 33L29 33L29 35L26 35L26 36L25 36L25 35L21 35L21 36L22 36L22 37L23 37L23 36L24 36L24 37L27 37L27 36L30 36L30 37L32 37L32 36L34 36L34 37L37 37L37 33L36 33L36 32L37 32L37 30L36 30L36 29L37 29L37 26L36 26L36 25L35 25L35 24L37 24L37 22L36 22L36 21L37 21L37 20L36 20L36 21L35 21L35 20L34 20L34 19L35 19L35 17L36 17L36 16L34 16L34 14L36 14L36 15L37 15L37 14L36 14L36 13L37 13L37 10L36 10L36 8L35 8L35 10L33 10L33 12L32 12L32 11L29 11L29 9L30 9L30 8L27 8L27 6L28 6L28 7L29 7L29 6L28 6L28 5L29 5L29 4L28 4L28 2L29 2L29 0L28 0L28 1L27 1L27 0L26 0L26 2L27 2L27 3L25 3L25 2L24 2L24 3L23 3L23 2L21 2L21 1L22 1L22 0L18 0L18 1L20 1L20 2L19 2L19 3L16 3L16 1L17 1L17 0L16 0L16 1L15 1L15 2L14 2L14 1L13 1L13 0ZM23 0L23 1L24 1L24 0ZM8 1L8 2L9 2L9 1ZM13 2L13 3L14 3L14 4L15 4L15 5L14 5L14 6L13 6L13 7L12 7L12 6L11 6L11 7L12 7L12 9L11 9L11 8L10 8L10 9L11 9L11 10L8 10L8 11L6 11L6 12L8 12L8 13L9 13L9 15L8 15L8 16L7 16L7 15L6 15L6 14L7 14L7 13L5 13L5 15L4 15L4 16L5 16L5 18L4 18L4 20L5 20L5 21L6 21L6 22L4 22L4 24L5 24L5 23L6 23L6 24L9 24L9 21L8 21L8 23L6 23L6 22L7 22L7 21L6 21L6 20L8 20L8 18L7 18L7 17L9 17L9 20L10 20L10 21L11 21L11 22L13 22L13 23L12 23L12 25L14 25L14 26L16 26L16 25L17 25L17 24L19 24L19 25L20 25L20 26L17 26L17 28L18 28L18 29L20 29L20 26L21 26L21 25L24 25L24 26L23 26L23 27L25 27L25 28L27 28L27 29L26 29L26 30L25 30L25 29L24 29L24 28L23 28L23 29L22 29L22 28L21 28L21 29L22 29L22 30L23 30L23 31L24 31L24 32L28 32L28 31L26 31L26 30L28 30L28 27L27 27L27 26L28 26L28 25L29 25L29 27L30 27L30 26L31 26L31 25L32 25L32 26L33 26L33 27L34 27L34 28L35 28L35 29L36 29L36 28L35 28L35 27L36 27L36 26L35 26L35 25L34 25L34 24L35 24L35 23L36 23L36 22L35 22L35 21L34 21L34 20L33 20L33 18L34 18L34 17L32 17L32 20L31 20L31 21L29 21L29 20L28 20L28 21L27 21L27 22L28 22L28 21L29 21L29 23L30 23L30 24L31 24L31 25L29 25L29 24L28 24L28 23L27 23L27 24L28 24L28 25L24 25L24 24L26 24L26 21L25 21L25 20L27 20L27 18L28 18L28 17L29 17L29 19L31 19L31 17L29 17L29 16L33 16L33 15L32 15L32 14L33 14L33 13L34 13L34 12L35 12L35 13L36 13L36 12L35 12L35 11L36 11L36 10L35 10L35 11L34 11L34 12L33 12L33 13L32 13L32 14L31 14L31 13L29 13L29 12L28 12L28 13L27 13L27 10L28 10L28 9L27 9L27 10L26 10L26 9L24 9L24 8L26 8L26 6L25 6L25 7L24 7L24 5L25 5L25 4L24 4L24 5L23 5L23 4L22 4L22 3L21 3L21 2L20 2L20 3L19 3L19 4L20 4L20 5L17 5L17 4L16 4L16 3L14 3L14 2ZM20 3L20 4L21 4L21 5L20 5L20 7L19 7L19 6L18 6L18 7L19 7L19 8L17 8L17 5L15 5L15 6L14 6L14 8L13 8L13 9L12 9L12 10L13 10L13 9L14 9L14 11L15 11L15 12L13 12L13 11L12 11L12 13L16 13L16 14L15 14L15 15L14 15L14 14L11 14L11 15L9 15L9 16L10 16L10 20L11 20L11 17L12 17L12 18L13 18L13 19L12 19L12 21L13 21L13 22L15 22L15 23L14 23L14 24L15 24L15 25L16 25L16 24L17 24L17 23L16 23L16 22L18 22L18 23L19 23L19 22L20 22L20 23L21 23L21 24L20 24L20 25L21 25L21 24L23 24L23 22L24 22L24 21L23 21L23 22L22 22L22 23L21 23L21 22L20 22L20 21L21 21L21 20L25 20L25 18L24 18L24 17L23 17L23 14L24 14L24 15L26 15L26 16L25 16L25 17L26 17L26 18L27 18L27 15L28 15L28 16L29 16L29 15L31 15L31 14L29 14L29 13L28 13L28 14L26 14L26 12L25 12L25 11L26 11L26 10L25 10L25 11L24 11L24 12L22 12L22 11L23 11L23 10L24 10L24 9L23 9L23 8L24 8L24 7L23 7L23 6L22 6L22 4L21 4L21 3ZM26 4L26 5L28 5L28 4ZM9 6L9 7L10 7L10 6ZM15 6L15 7L16 7L16 6ZM21 6L21 7L20 7L20 8L19 8L19 9L17 9L17 8L16 8L16 9L15 9L15 8L14 8L14 9L15 9L15 10L16 10L16 9L17 9L17 11L16 11L16 13L17 13L17 14L19 14L19 15L17 15L17 16L16 16L16 17L13 17L13 16L14 16L14 15L12 15L12 17L13 17L13 18L16 18L16 19L17 19L17 20L16 20L16 21L15 21L15 19L13 19L13 20L14 20L14 21L15 21L15 22L16 22L16 21L17 21L17 20L18 20L18 19L19 19L19 21L18 21L18 22L19 22L19 21L20 21L20 20L21 20L21 19L24 19L24 18L21 18L21 17L22 17L22 16L20 16L20 14L21 14L21 13L22 13L22 14L23 14L23 13L22 13L22 12L21 12L21 13L20 13L20 11L21 11L21 9L22 9L22 8L21 8L21 7L22 7L22 6ZM0 8L0 12L2 12L2 11L1 11L1 9L3 9L3 10L5 10L5 8ZM20 8L20 9L19 9L19 10L20 10L20 9L21 9L21 8ZM31 8L31 10L32 10L32 8ZM33 8L33 9L34 9L34 8ZM8 11L8 12L9 12L9 13L11 13L11 12L10 12L10 11ZM18 11L18 12L17 12L17 13L19 13L19 14L20 14L20 13L19 13L19 11ZM2 13L2 14L1 14L1 15L2 15L2 14L3 14L3 13ZM24 13L24 14L25 14L25 13ZM28 14L28 15L29 15L29 14ZM5 15L5 16L6 16L6 17L7 17L7 16L6 16L6 15ZM17 16L17 17L16 17L16 18L17 18L17 19L18 19L18 18L20 18L20 19L21 19L21 18L20 18L20 16L19 16L19 17L18 17L18 16ZM17 17L17 18L18 18L18 17ZM6 18L6 19L5 19L5 20L6 20L6 19L7 19L7 18ZM36 18L36 19L37 19L37 18ZM32 20L32 21L31 21L31 22L30 22L30 23L33 23L33 24L32 24L32 25L33 25L33 26L34 26L34 27L35 27L35 26L34 26L34 25L33 25L33 24L34 24L34 22L32 22L32 21L33 21L33 20ZM10 23L10 24L11 24L11 23ZM15 23L15 24L16 24L16 23ZM2 26L2 28L3 28L3 29L7 29L7 28L5 28L5 27L7 27L7 26ZM25 26L25 27L26 27L26 26ZM14 27L14 28L15 28L15 27ZM8 29L8 31L9 31L9 30L10 30L10 29ZM23 29L23 30L24 30L24 29ZM29 29L29 32L32 32L32 29ZM33 29L33 30L34 30L34 29ZM30 30L30 31L31 31L31 30ZM35 30L35 31L34 31L34 32L33 32L33 33L34 33L34 34L32 34L32 33L31 33L31 34L30 34L30 35L31 35L31 36L32 36L32 35L34 35L34 36L36 36L36 35L34 35L34 34L35 34L35 33L34 33L34 32L36 32L36 30ZM15 33L15 34L16 34L16 35L14 35L14 36L16 36L16 35L17 35L17 36L18 36L18 35L17 35L17 34L18 34L18 33ZM0 0L0 7L7 7L7 0ZM1 1L1 6L6 6L6 1ZM2 2L2 5L5 5L5 2ZM30 0L30 7L37 7L37 0ZM31 1L31 6L36 6L36 1ZM32 2L32 5L35 5L35 2ZM0 30L0 37L7 37L7 30ZM1 31L1 36L6 36L6 31ZM2 32L2 35L5 35L5 32Z" fill="#000000"/></g></g></svg>
