<?xml version="1.0" encoding="UTF-8"?>
<svg xmlns="http://www.w3.org/2000/svg" version="1.1" width="100" height="100" viewBox="0 0 100 100"><rect x="0" y="0" width="100" height="100" fill="#ffffff"/><g transform="scale(2.703)"><g transform="translate(0,0)"><path fill-rule="evenodd" d="M10 0L10 2L11 2L11 0ZM12 0L12 1L13 1L13 2L12 2L12 4L14 4L14 7L15 7L15 6L16 6L16 7L17 7L17 5L20 5L20 4L21 4L21 6L20 6L20 8L22 8L22 9L19 9L19 8L17 8L17 9L16 9L16 8L15 8L15 9L14 9L14 8L13 8L13 9L12 9L12 7L13 7L13 5L11 5L11 6L10 6L10 4L11 4L11 3L8 3L8 4L9 4L9 5L8 5L8 7L9 7L9 8L6 8L6 9L9 9L9 10L6 10L6 11L7 11L7 12L6 12L6 13L7 13L7 12L8 12L8 15L7 15L7 14L6 14L6 15L7 15L7 16L3 16L3 15L2 15L2 13L1 13L1 14L0 14L0 15L1 15L1 16L0 16L0 17L1 17L1 16L3 16L3 17L4 17L4 18L1 18L1 20L2 20L2 21L3 21L3 23L4 23L4 24L2 24L2 25L1 25L1 23L0 23L0 29L1 29L1 26L2 26L2 27L4 27L4 28L3 28L3 29L8 29L8 31L9 31L9 32L8 32L8 37L9 37L9 36L10 36L10 37L11 37L11 34L10 34L10 33L12 33L12 34L13 34L13 35L12 35L12 37L13 37L13 36L14 36L14 37L16 37L16 36L14 36L14 35L17 35L17 34L18 34L18 36L17 36L17 37L18 37L18 36L19 36L19 34L20 34L20 33L21 33L21 34L26 34L26 33L29 33L29 35L26 35L26 36L25 36L25 35L23 35L23 36L24 36L24 37L27 37L27 36L30 36L30 37L32 37L32 36L34 36L34 37L37 37L37 33L36 33L36 32L37 32L37 30L36 30L36 29L37 29L37 26L36 26L36 25L35 25L35 24L37 24L37 22L36 22L36 21L37 21L37 20L36 20L36 21L35 21L35 20L34 20L34 19L35 19L35 17L36 17L36 16L34 16L34 14L36 14L36 15L37 15L37 14L36 14L36 13L37 13L37 10L36 10L36 8L35 8L35 10L33 10L33 12L32 12L32 11L29 11L29 9L30 9L30 8L27 8L27 6L28 6L28 7L29 7L29 6L28 6L28 5L29 5L29 4L28 4L28 2L29 2L29 0L28 0L28 1L27 1L27 0L26 0L26 2L27 2L27 3L25 3L25 2L24 2L24 3L23 3L23 2L21 2L21 1L22 1L22 0L18 0L18 1L17 1L17 2L16 2L16 1L15 1L15 0L14 0L14 1L13 1L13 0ZM23 0L23 1L24 1L24 0ZM8 1L8 2L9 2L9 1ZM19 1L19 2L17 2L17 3L16 3L16 4L15 4L15 2L13 2L13 3L14 3L14 4L15 4L15 5L16 5L16 4L17 4L17 3L21 3L21 4L22 4L22 6L21 6L21 7L22 7L22 6L23 6L23 7L24 7L24 8L23 8L23 9L24 9L24 10L23 10L23 11L22 11L22 12L21 12L21 13L20 13L20 10L19 10L19 9L17 9L17 10L16 10L16 9L15 9L15 10L12 10L12 9L11 9L11 8L10 8L10 9L11 9L11 10L9 10L9 11L8 11L8 12L10 12L10 13L9 13L9 15L8 15L8 16L7 16L7 17L5 17L5 19L3 19L3 20L5 20L5 21L4 21L4 22L5 22L5 21L6 21L6 22L7 22L7 23L5 23L5 24L7 24L7 25L5 25L5 26L7 26L7 25L10 25L10 26L9 26L9 27L5 27L5 28L8 28L8 29L9 29L9 30L10 30L10 32L11 32L11 30L13 30L13 31L12 31L12 33L15 33L15 34L17 34L17 33L15 33L15 32L14 32L14 31L15 31L15 30L16 30L16 32L18 32L18 30L19 30L19 33L18 33L18 34L19 34L19 33L20 33L20 31L21 31L21 30L19 30L19 29L22 29L22 30L23 30L23 31L22 31L22 32L21 32L21 33L23 33L23 31L24 31L24 32L28 32L28 31L26 31L26 30L28 30L28 27L27 27L27 26L28 26L28 25L29 25L29 27L30 27L30 26L31 26L31 25L32 25L32 26L33 26L33 27L34 27L34 28L35 28L35 29L36 29L36 28L35 28L35 27L36 27L36 26L35 26L35 25L34 25L34 24L35 24L35 23L36 23L36 22L35 22L35 21L34 21L34 20L33 20L33 18L34 18L34 17L32 17L32 20L31 20L31 21L29 21L29 20L28 20L28 21L27 21L27 22L28 22L28 21L29 21L29 23L30 23L30 24L31 24L31 25L29 25L29 24L28 24L28 23L27 23L27 24L28 24L28 25L24 25L24 24L26 24L26 21L25 21L25 20L27 20L27 18L28 18L28 17L29 17L29 19L31 19L31 17L29 17L29 16L33 16L33 15L32 15L32 14L33 14L33 13L34 13L34 12L35 12L35 13L36 13L36 12L35 12L35 11L36 11L36 10L35 10L35 11L34 11L34 12L33 12L33 13L32 13L32 14L31 14L31 13L29 13L29 12L28 12L28 13L27 13L27 10L28 10L28 9L27 9L27 10L26 10L26 9L24 9L24 8L26 8L26 6L25 6L25 7L24 7L24 5L25 5L25 4L24 4L24 5L23 5L23 4L22 4L22 3L21 3L21 2L20 2L20 1ZM26 4L26 5L28 5L28 4ZM9 6L9 7L10 7L10 6ZM11 6L11 7L12 7L12 6ZM18 6L18 7L19 7L19 6ZM0 8L0 11L2 11L2 9L3 9L3 11L4 11L4 12L3 12L3 14L4 14L4 12L5 12L5 8ZM31 8L31 10L32 10L32 8ZM33 8L33 9L34 9L34 8ZM15 10L15 13L14 13L14 12L13 12L13 11L12 11L12 13L14 13L14 14L11 14L11 13L10 13L10 14L11 14L11 15L10 15L10 16L9 16L9 17L7 17L7 18L6 18L6 19L7 19L7 18L9 18L9 17L10 17L10 16L11 16L11 17L12 17L12 18L13 18L13 17L16 17L16 18L14 18L14 20L13 20L13 19L12 19L12 21L14 21L14 22L11 22L11 18L10 18L10 19L8 19L8 20L6 20L6 21L9 21L9 22L8 22L8 23L7 23L7 24L8 24L8 23L9 23L9 22L11 22L11 23L10 23L10 24L11 24L11 25L12 25L12 26L13 26L13 27L12 27L12 29L13 29L13 28L14 28L14 29L15 29L15 28L17 28L17 30L18 30L18 29L19 29L19 28L20 28L20 27L19 27L19 28L17 28L17 26L20 26L20 25L21 25L21 26L22 26L22 27L21 27L21 28L22 28L22 29L23 29L23 30L24 30L24 29L25 29L25 30L26 30L26 29L27 29L27 28L25 28L25 27L26 27L26 26L25 26L25 27L23 27L23 26L24 26L24 25L23 25L23 22L24 22L24 21L23 21L23 22L22 22L22 23L21 23L21 21L19 21L19 20L20 20L20 19L19 19L19 18L20 18L20 16L22 16L22 17L21 17L21 18L24 18L24 19L21 19L21 20L25 20L25 18L24 18L24 17L23 17L23 14L24 14L24 15L26 15L26 16L25 16L25 17L26 17L26 18L27 18L27 15L28 15L28 16L29 16L29 15L31 15L31 14L29 14L29 13L28 13L28 14L26 14L26 12L25 12L25 11L26 11L26 10L25 10L25 11L24 11L24 12L22 12L22 13L21 13L21 14L20 14L20 13L19 13L19 11L18 11L18 12L17 12L17 11L16 11L16 10ZM10 11L10 12L11 12L11 11ZM16 12L16 13L15 13L15 14L14 14L14 15L12 15L12 17L13 17L13 16L16 16L16 17L17 17L17 18L16 18L16 19L15 19L15 20L14 20L14 21L15 21L15 22L14 22L14 23L12 23L12 25L14 25L14 26L16 26L16 25L17 25L17 24L19 24L19 25L20 25L20 24L21 24L21 25L22 25L22 26L23 26L23 25L22 25L22 24L21 24L21 23L20 23L20 22L19 22L19 21L15 21L15 20L16 20L16 19L17 19L17 20L18 20L18 18L19 18L19 17L17 17L17 16L20 16L20 14L19 14L19 13L17 13L17 12ZM16 13L16 14L15 14L15 15L18 15L18 14L17 14L17 13ZM22 13L22 14L23 14L23 13ZM24 13L24 14L25 14L25 13ZM28 14L28 15L29 15L29 14ZM36 18L36 19L37 19L37 18ZM9 20L9 21L10 21L10 20ZM32 20L32 21L31 21L31 22L30 22L30 23L33 23L33 24L32 24L32 25L33 25L33 26L34 26L34 27L35 27L35 26L34 26L34 25L33 25L33 24L34 24L34 22L32 22L32 21L33 21L33 20ZM0 21L0 22L1 22L1 21ZM15 22L15 23L14 23L14 24L15 24L15 25L16 25L16 23L18 23L18 22ZM2 25L2 26L4 26L4 25ZM9 27L9 29L11 29L11 28L10 28L10 27ZM14 27L14 28L15 28L15 27ZM22 27L22 28L23 28L23 29L24 29L24 28L23 28L23 27ZM29 29L29 32L32 32L32 29ZM33 29L33 30L34 30L34 29ZM30 30L30 31L31 31L31 30ZM35 30L35 31L34 31L34 32L33 32L33 33L34 33L34 34L32 34L32 33L31 33L31 34L30 34L30 35L31 35L31 36L32 36L32 35L34 35L34 36L36 36L36 35L34 35L34 34L35 34L35 33L34 33L34 32L36 32L36 30ZM20 35L20 37L21 37L21 36L22 36L22 35ZM0 0L0 7L7 7L7 0ZM1 1L1 6L6 6L6 1ZM2 2L2 5L5 5L5 2ZM30 0L30 7L37 7L37 0ZM31 1L31 6L36 6L36 1ZM32 2L32 5L35 5L35 2ZM0 30L0 37L7 37L7 30ZM1 31L1 36L6 36L6 31ZM2 32L2 35L5 35L5 32Z" fill="#000000"/></g></g></svg>
